HIERARCHY
ROOT Hips
{
  OFFSET -31.5692 30.0904 122.763
  CHANNELS 6 Xposition Yposition Zposition Zrotation Xrotation Yrotation
  JOINT LeftUpLeg
  {
    OFFSET 8.64259 1.95398 -2.38835
    CHANNELS 3 Zrotation Xrotation Yrotation
    JOINT LeftLeg
    {
      OFFSET 43.7702 0 0
      CHANNELS 3 Zrotation Xrotation Yrotation
      JOINT LeftFoot
      {
        OFFSET 40.6238 0 0
        CHANNELS 3 Zrotation Xrotation Yrotation
        JOINT LeftToeBase
        {
          OFFSET 12.7242 0 0
          CHANNELS 3 Zrotation Xrotation Yrotation
          End Site
          {
            OFFSET 0 0 0
          }
        }
      }
    }
  }
  JOINT RightUpLeg
  {
    OFFSET -8.2249 1.95398 -2.59336
    CHANNELS 3 Zrotation Xrotation Yrotation
    JOINT RightLeg
    {
      OFFSET 43.5653 0 0
      CHANNELS 3 Zrotation Xrotation Yrotation
      JOINT RightFoot
      {
        OFFSET 40.6238 0 0
        CHANNELS 3 Zrotation Xrotation Yrotation
        JOINT RightToeBase
        {
          OFFSET 12.7242 0 0
          CHANNELS 3 Zrotation Xrotation Yrotation
          End Site
          {
            OFFSET 0 0 0
          }
        }
      }
    }
  }
  JOINT Spine
  {
    OFFSET 0.165834 0.87714 6.61349
    CHANNELS 3 Zrotation Xrotation Yrotation
    JOINT Spine1
    {
      OFFSET 7.38963 1.71661e-005 0
      CHANNELS 3 Zrotation Xrotation Yrotation
      JOINT Spine2
      {
        OFFSET 11.9445 1.14441e-005 0
        CHANNELS 3 Zrotation Xrotation Yrotation
        JOINT Spine3
        {
          OFFSET 14.7254 4.19617e-005 0
          CHANNELS 3 Zrotation Xrotation Yrotation
          JOINT Spine4
          {
            OFFSET 10.9679 0 0
            CHANNELS 3 Zrotation Xrotation Yrotation
            JOINT RightShoulder
            {
              OFFSET 2.46616 -1.6653 3.69651
              CHANNELS 3 Zrotation Xrotation Yrotation
              JOINT RightArm
              {
                OFFSET 13.0012 0 0
                CHANNELS 3 Zrotation Xrotation Yrotation
                JOINT RightForeArm
                {
                  OFFSET 28.7848 1.62311e-005 0
                  CHANNELS 3 Zrotation Xrotation Yrotation
                  JOINT RightHand
                  {
                    OFFSET 26.5688 1.62095e-005 0
                    CHANNELS 3 Zrotation Xrotation Yrotation
                    End Site
                    {
                      OFFSET 0 0 0
                    }
                  }
                }
              }
            }
            JOINT LeftShoulder
            {
              OFFSET 2.38034 -1.29275 -3.7523
              CHANNELS 3 Zrotation Xrotation Yrotation
              JOINT LeftArm
              {
                OFFSET 16.3182 6.07031e-005 0
                CHANNELS 3 Zrotation Xrotation Yrotation
                JOINT LeftForeArm
                {
                  OFFSET 27.0901 0 0
                  CHANNELS 3 Zrotation Xrotation Yrotation
                  JOINT LeftHand
                  {
                    OFFSET 24.5451 1.51738e-005 0
                    CHANNELS 3 Zrotation Xrotation Yrotation
                    End Site
                    {
                      OFFSET 0 0 0
                    }
                  }
                }
              }
            }
            JOINT Neck
            {
              OFFSET 5.0226 -0.0266342 0
              CHANNELS 3 Zrotation Xrotation Yrotation
              JOINT Head
              {
                OFFSET 6.69364 2.86102e-005 0
                CHANNELS 3 Zrotation Xrotation Yrotation
                End Site
                {
                  OFFSET 0 0 0
                }
              }
            }
          }
        }
      }
    }
  }
}
MOTION
Frames:	6
Frame Time:	0.0416667
-240.972 98.8124 -206.677 97.6797 -33.8487 96.0388 -173.827 12.3772 94.7016 -63.9607 10.3486 4.22415 64.6338 2.38315 5.10063 15.9481 -4.03278 -4.64022 174.702 3.1409 96.6364 -25.1096 -2.65373 2.12519 72.2325 -6.54855 -3.15033 17.4672 2.42001 9.35753 0.0293725 8.42176 -90.5343 10.0292 -0.184428 -1.04596 -1.64215 -0.230293 -1.03684 -24.1738 0.138413 -1.05304 -4.16118 0.138423 -1.05304 89.4989 -30.8448 -107.419 36.6035 -5.00005 -0.369557 4.71396 -28.1132 -14.8358 -19.8676 -0.0715375 -10.8532 -90.2891 -51.9448 78.7148 -21.1782 9.04675 -10.1579 -3.08186 13.2997 -1.10276 2.53495 -0.448183 -22.2816 14.8743 -4.3573 -2.90463 -1.50046 -3.45221 0.026111 
-236.697 99.1882 -202.803 97.2681 -36.1829 93.4443 -174.618 19.0085 89.7138 -55.5314 6.2858 1.99126 66.2374 3.90195 5.50409 18.3122 -3.00295 -4.65377 173.943 -0.929518 94.3171 -23.3827 -6.56329 0.793875 73.2882 -6.75983 -4.08008 18.567 2.02687 9.25957 0.580335 8.3644 -90.1466 10.148 1.08958 -0.383462 -1.52255 1.07165 -0.431052 -24.0614 1.15444 -0.0382251 -4.04872 1.15446 -0.0382278 89.5657 -29.6693 -107.75 34.5454 -5.72259 -4.54317 3.82809 -27.2244 -16.6431 -21.3217 0.245744 -12.2852 -89.3052 -52.2301 80.2113 -20.8387 7.72707 -5.66584 -2.25198 8.70606 -4.57633 4.35502 -0.78362 -20.3107 11.357 -4.82558 -1.91467 -0.278241 -4.28437 -1.23537 
-232.199 98.9364 -198.942 97.0804 -39.1417 92.3108 -175.538 21.9504 86.9462 -38.8851 4.39902 0.0250899 63.3849 2.94024 5.10033 22.7938 -2.28815 -1.47101 173.469 -4.38513 93.0194 -22.9774 -11.7626 -0.42014 73.3175 -6.68689 -6.17317 21.9083 0.923526 8.60245 1.02115 8.4443 -89.9343 9.9868 2.06505 -0.0391869 -1.68251 2.06135 -0.130085 -24.2301 1.98134 0.583507 -4.21745 1.98133 0.583506 89.2859 -28.4818 -108.797 30.685 -7.05239 -9.89703 3.19071 -29.7306 -18.4941 -25.4781 0.177556 -11.3559 -89.3033 -53.9928 80.5506 -18.848 6.67356 -2.09816 -1.53756 7.30703 -6.26967 3.31751 -0.716268 -21.3392 10.3219 -4.60133 0.0358584 -0.437646 -4.56085 -2.31679 
-227.225 97.7174 -194.706 96.7352 -41.7464 91.8506 -177.3 21.2969 85.9542 -16.7832 3.44019 -0.740929 60.5625 2.53439 2.65929 21.68 -3.33239 -0.197263 172.747 -9.17022 91.7646 -21.7669 -13.0435 -1.16771 76.7797 -9.3131 -6.08989 23.8158 0.0337478 9.2472 1.2833 8.45624 -89.79 9.9608 2.65311 0.19948 -1.70744 2.65932 0.0824318 -24.262 2.47044 0.988111 -4.24933 2.47043 0.988101 88.8614 -27.9033 -109.905 26.5995 -6.0755 -15.4549 2.14122 -32.0681 -18.8852 -27.3125 -0.0482842 -10.369 -89.0736 -55.1818 81.0972 -17.9282 6.05916 1.31026 -1.86848 5.90103 -6.31465 2.82295 -0.681709 -21.4425 10.1757 -4.13538 1.61518 -0.611804 -4.48088 -3.07339 
-221.921 96.0224 -190.007 97.0148 -44.7526 92.486 -177.856 22.9247 86.1346 -7.45655 2.65167 -1.64204 61.7264 2.55415 2.10485 23.3129 -4.17748 3.86238 171.612 -13.6047 90.4739 -22.5008 -16.4572 -1.73915 77.5484 -10.3922 -6.89313 26.9327 -1.01626 8.75826 1.5645 8.47156 -89.74 9.92943 3.2363 0.252429 -1.73748 3.24428 0.109587 -24.3014 3.01068 1.21426 -4.28877 3.01069 1.21426 88.3317 -27.8014 -111.023 23.6134 -5.35656 -19.5453 0.917873 -31.6824 -20.4627 -27.574 0.191023 -11.4307 -89.0135 -56.4117 81.4008 -17.8941 5.98138 3.62247 -2.16428 3.98712 -5.17275 1.3392 -0.429856 -19.7292 10.1398 -3.62271 2.9659 -0.504277 -4.29805 -3.3991 
-215.903 94.7614 -184.676 99.0454 -48.0272 94.2351 -176.701 21.4897 86.3301 -7.29193 2.24478 -2.25795 54.5567 -1.71208 0.0327977 20.5743 -4.63289 1.58612 168.487 -19.87 86.5046 -21.3922 -21.1184 -2.07592 75.5867 -10.0836 -6.44995 33.3556 -3.60346 10.0966 1.82007 8.56497 -89.6789 9.7406 3.77343 0.339623 -1.92488 3.78474 0.172965 -24.4988 3.49671 1.45934 -4.48612 3.49671 1.45935 88.2113 -27.4765 -111.418 23.5505 -3.34716 -22.4536 -1.42424 -33.9768 -21.3273 -26.6459 0.437887 -13.4505 -88.8013 -58.2813 82.0141 -17.4291 5.48021 4.5608 -2.3548 4.16773 -2.23824 -0.0699797 -0.205783 -19.1117 11.0868 -3.09635 3.64242 -0.599222 -3.96699 -3.57365 
